<?xml version="1.0" encoding="UTF-8"?>
<svg xmlns="http://www.w3.org/2000/svg" version="1.1" viewBox="0 0 82.3 21.8">
  <defs>
    <style>
      .cls-1 {
        fill: #3f50a5;
      }
    </style>
  </defs>
  <!-- Generator: Adobe Illustrator 28.7.0, SVG Export Plug-In . SVG Version: 1.2.0 Build 136)  -->
  <g>
    <g id="_레이어_1">
      <g>
        <g>
          <path class="cls-1" d="M6.3,15.4h10c1,0,1.4-.4,1.4-1s-.4-1.1-1.4-1.1h-4.5c-3.4,0-5.9-2.1-5.9-5.9S8.4,1.6,11.8,1.6h10.8v4.8h-9.6c-.7,0-1.3.3-1.3,1.1s.6,1.1,1.3,1.1h4.6c3.6,0,5.9,2,5.9,5.8s-2.4,6-5.9,6H6.3s0-4.8,0-4.8Z"/>
          <path class="cls-1" d="M22.6,1.6h12.2c4.1,0,5.9,2.2,5.9,5.1s-1,3.5-2.8,4.1c1.8.8,2.8,2.2,2.8,4.3s-1.9,5.1-5.9,5.1h-12.2s0-18.7,0-18.7ZM33.3,9c.9,0,1.6-.4,1.6-1.3s-.7-1.3-1.6-1.3h-4.9v2.7h4.9ZM33.3,15.4c.9,0,1.6-.4,1.6-1.4s-.7-1.3-1.6-1.3h-4.9v2.7h4.9Z"/>
        </g>
        <g>
          <path d="M50.4,3.7v.2h-.8v-.3c0-.7-.3-1.1-.9-1.1s-.9.4-.9,1.1c0,1.8,2.7,2,2.7,4.2s-.6,2-1.8,2-1.8-.8-1.8-2v-.5h.8v.5c0,.7.3,1.1.9,1.1s.9-.4.9-1.1c0-1.8-2.7-2-2.7-4.2s.6-2,1.8-2,1.8.8,1.8,2Z"/>
          <path d="M52.4,9.8V2.6h-1.5v-.8h3.9v.8h-1.5v7.2h-.9Z"/>
          <path d="M55.8,8.2l-.3,1.6h-.8l1.5-8h1.3l1.5,8h-.9l-.3-1.6s-2,0-2,0ZM55.9,7.4h1.8l-.9-4.6-.9,4.6Z"/>
          <path d="M61.6,1.8c1.3,0,1.8.6,1.8,1.8v.7c0,.9-.3,1.4-1,1.7.7.2,1,.8,1,1.7v1.3c0,.4,0,.7.2,1h-.9c-.1-.2-.1-.4-.1-1v-1.3c0-.9-.4-1.2-1.2-1.2h-.6v3.4h-.9V1.8h1.8ZM61.3,5.6c.7,0,1.1-.2,1.1-1.1v-.8c0-.7-.3-1.1-.9-1.1h-.9v3s.7,0,.7,0Z"/>
          <path d="M65.5,9.8V2.6h-1.5v-.8h3.9v.8h-1.5v7.2h-.9Z"/>
          <path d="M69.3,7.9c0,.7.3,1.2.9,1.2s.9-.4.9-1.2V1.8h.8v6.1c0,1.2-.6,2-1.8,2s-1.8-.8-1.8-2V1.8h.9v6.2Z"/>
          <path d="M74.6,1.8c1.3,0,1.8.7,1.8,2v1c0,1.3-.6,1.9-1.9,1.9h-.8v3.2h-.9V1.8h1.8ZM74.6,5.9c.7,0,1-.3,1-1.1v-1.1c0-.7-.3-1.1-.9-1.1h-.9v3.3h.8Z"/>
        </g>
        <g>
          <path d="M60.1,12.1c1.3,0,1.7.6,1.7,1.8v.4c0,.8-.2,1.4-.9,1.6.8.2,1.1.8,1.1,1.7v.7c0,1.2-.6,1.9-1.8,1.9h-1.9v-8s1.8,0,1.8,0ZM59.9,15.6c.7,0,1.1-.2,1.1-1.1v-.5c0-.7-.2-1.1-.9-1.1h-.9v2.6h.7,0ZM60.1,19.4c.7,0,1-.3,1-1.1v-.7c0-.9-.4-1.2-1.1-1.2h-.8v3h1Z"/>
          <path d="M63.7,18.6l-.3,1.6h-.8l1.5-8h1.3l1.5,8h-.9l-.3-1.6h-2ZM63.8,17.8h1.8l-.9-4.6-.9,4.6Z"/>
          <path d="M68.4,20.2h-.8v-8h1.1l1.9,5.8v-5.8h.8v8h-.9l-2.1-6.5v6.5Z"/>
          <path d="M73.7,16.7l-.5.8v2.7h-.9v-8h.9v3.9l2.1-3.9h.9l-2,3.7,2.1,4.4h-.9l-1.7-3.5h0Z"/>
        </g>
      </g>
    </g>
  </g>
</svg>